<svg width="36" height="28" viewBox="0 0 36 28" fill="none" xmlns="http://www.w3.org/2000/svg">
<path d="M2.02469 0H0.493827C0.197531 0 0 0.246914 0 0.54321C1.33333 10.8148 2.61728 18.4198 3.35802 27.5556C3.35802 27.8025 3.60494 28 3.85185 28C4.14815 28 4.34568 27.7531 4.34568 27.5062C3.55556 17.284 3.11111 8.34568 2.51852 0.444444C2.46914 0.197531 2.2716 0 2.02469 0Z" fill="#4AA8AD"/>
<path d="M4.04932 0.493827C4.19747 7.7037 4.79007 16.5926 4.93821 27.5062C4.93821 27.7531 5.13574 28 5.43204 28H6.02463C6.27155 28 6.51846 27.8025 6.51846 27.5062C6.37031 16.0988 6.27155 8.39506 6.51846 0.493827C6.51846 0.246914 6.32093 0 6.02463 0H4.49377C4.24686 0 3.99994 0.197531 4.04932 0.493827Z" fill="white"/>
<path d="M8.09845 0.444444C7.9503 7.16049 7.90092 16.0494 7.50586 27.5062C7.50586 27.7531 7.70339 28 7.99969 28H9.57993C9.82685 28 10.0244 27.8025 10.0738 27.5556C10.4688 16.1481 10.4688 7.25926 10.6664 0.493827C10.6664 0.246914 10.4688 0 10.1725 0H8.59228C8.29598 0 8.09845 0.197531 8.09845 0.444444Z" fill="#4AA8AD"/>
<path d="M14.0732 0.444444C13.6781 7.90123 11.8016 22.8642 11.5547 27.5062C11.5547 27.7531 11.7522 28 12.0485 28H16.6905C16.9868 28 17.1843 27.7531 17.1843 27.4568C16.7893 23.9506 16.1967 18.4691 16.6411 0.493827C16.6411 0.246914 16.4436 0 16.1473 0H14.567C14.3201 0 14.1226 0.197531 14.0732 0.444444Z" fill="#DEA558"/>
<path d="M18.2218 0.493827C18.2218 8.69136 17.7773 17.5802 17.7773 27.5556C17.7773 27.8025 17.9749 28.0494 18.2712 28.0494H18.765C19.0119 28.0494 19.2588 27.8519 19.2588 27.5556C19.2588 18.2222 19.2588 9.33333 19.2588 0.493827C19.2588 0.246914 19.0613 0 18.765 0C18.4193 0 18.2218 0.197531 18.2218 0.493827Z" fill="#4AA8AD"/>
<path d="M21.2848 0.444022C20.9391 8.09834 20.4453 19.6045 19.7539 27.4564C19.7539 27.7527 19.9514 27.9502 20.2477 27.9502H21.3342C21.5811 27.9502 21.7786 27.7527 21.828 27.5058C21.9761 22.6662 21.9761 9.53044 22.3218 0.444022C22.3218 0.197109 22.1243 -0.0498047 21.828 -0.0498047C21.5317 -0.000421971 21.3342 0.197109 21.2848 0.444022Z" fill="white"/>
<path d="M24.3451 28H34.8142C35.1599 28 35.3574 27.6543 35.2587 27.358C30.5673 15.3086 30.1722 13.5802 27.4068 0.395062C27.3574 0.148148 27.1599 0 26.9624 0H23.8512C23.555 0 23.3574 0.246914 23.3574 0.54321C23.7525 3.7037 24.2957 19.9012 23.8512 27.5062C23.8512 27.7531 24.0488 28 24.3451 28Z" fill="white"/>
</svg>
